<mxfile host="Electron" modified="2024-06-15T00:04:03.758Z" agent="Mozilla/5.0 (Windows NT 10.0; Win64; x64) AppleWebKit/537.36 (KHTML, like Gecko) draw.io/24.5.3 Chrome/124.0.6367.207 Electron/30.0.6 Safari/537.36" etag="p0iFQP5zaRppIN8--1xF" version="24.5.3" type="device">
  <diagram name="Page-1" id="m8U9wb9VBUbrtN5a3RvK">
    <mxGraphModel dx="789" dy="470" grid="1" gridSize="10" guides="1" tooltips="1" connect="1" arrows="1" fold="1" page="1" pageScale="1" pageWidth="1400" pageHeight="400" math="0" shadow="0">
      <root>
        <mxCell id="0" />
        <mxCell id="1" parent="0" />
        <mxCell id="TjmmVvNg8PLHpeqEWvDz-2" value="Matrícula" style="swimlane;childLayout=stackLayout;horizontal=1;startSize=40;horizontalStack=0;rounded=1;fontSize=14;fontStyle=0;strokeWidth=2;resizeParent=0;resizeLast=1;shadow=0;dashed=0;align=center;arcSize=4;whiteSpace=wrap;html=1;" vertex="1" parent="1">
          <mxGeometry x="40" y="40" width="200" height="120" as="geometry" />
        </mxCell>
        <mxCell id="TjmmVvNg8PLHpeqEWvDz-3" value="&lt;div&gt;&lt;font color=&quot;#ff0000&quot;&gt;&lt;b&gt;+ id_matrícula - integer&lt;/b&gt;&lt;br&gt;&lt;/font&gt;&lt;/div&gt;&lt;div&gt;+ validade - date&lt;div&gt;+ preco_mensalidade - real&lt;/div&gt;&lt;/div&gt;&lt;div&gt;&lt;div&gt;&lt;i style=&quot;&quot;&gt;&lt;font color=&quot;#0000ff&quot;&gt;+ id_aluno - integer&lt;/font&gt;&lt;/i&gt;&lt;br&gt;&lt;/div&gt;&lt;/div&gt;" style="align=left;strokeColor=none;fillColor=none;spacingLeft=4;fontSize=12;verticalAlign=top;resizable=0;rotatable=0;part=1;html=1;" vertex="1" parent="TjmmVvNg8PLHpeqEWvDz-2">
          <mxGeometry y="40" width="200" height="80" as="geometry" />
        </mxCell>
        <mxCell id="TjmmVvNg8PLHpeqEWvDz-4" value="Aluno" style="swimlane;childLayout=stackLayout;horizontal=1;startSize=40;horizontalStack=0;rounded=1;fontSize=14;fontStyle=0;strokeWidth=2;resizeParent=0;resizeLast=1;shadow=0;dashed=0;align=center;arcSize=4;whiteSpace=wrap;html=1;" vertex="1" parent="1">
          <mxGeometry x="320" y="40" width="200" height="160" as="geometry" />
        </mxCell>
        <mxCell id="TjmmVvNg8PLHpeqEWvDz-5" value="&lt;div&gt;&lt;font color=&quot;#ff0000&quot;&gt;&lt;b&gt;+ id_aluno - integer&lt;/b&gt;&lt;br&gt;&lt;/font&gt;&lt;/div&gt;+ celular - varchar (14)&lt;br&gt;&lt;div&gt;+ idade - small_int&lt;br&gt;&lt;div&gt;+ nome - varchar(40)&lt;/div&gt;&lt;/div&gt;&lt;div&gt;&lt;div&gt;&lt;i style=&quot;&quot;&gt;&lt;font color=&quot;#0000ff&quot;&gt;+ id_turma - integer&lt;/font&gt;&lt;/i&gt;&lt;br&gt;&lt;/div&gt;&lt;/div&gt;" style="align=left;strokeColor=none;fillColor=none;spacingLeft=4;fontSize=12;verticalAlign=top;resizable=0;rotatable=0;part=1;html=1;" vertex="1" parent="TjmmVvNg8PLHpeqEWvDz-4">
          <mxGeometry y="40" width="200" height="120" as="geometry" />
        </mxCell>
        <mxCell id="TjmmVvNg8PLHpeqEWvDz-6" value="Professor" style="swimlane;childLayout=stackLayout;horizontal=1;startSize=40;horizontalStack=0;rounded=1;fontSize=14;fontStyle=0;strokeWidth=2;resizeParent=0;resizeLast=1;shadow=0;dashed=0;align=center;arcSize=4;whiteSpace=wrap;html=1;" vertex="1" parent="1">
          <mxGeometry x="600" y="200" width="200" height="120" as="geometry" />
        </mxCell>
        <mxCell id="TjmmVvNg8PLHpeqEWvDz-7" value="&lt;div&gt;&lt;font color=&quot;#ff0000&quot;&gt;&lt;b&gt;+ id_professor - integer&lt;/b&gt;&lt;br&gt;&lt;/font&gt;&lt;/div&gt;+ celular - varchar (14)&lt;br&gt;&lt;div&gt;&lt;div&gt;+ nome - varchar(40)&lt;/div&gt;&lt;/div&gt;&lt;div&gt;&lt;br&gt;&lt;/div&gt;" style="align=left;strokeColor=none;fillColor=none;spacingLeft=4;fontSize=12;verticalAlign=top;resizable=0;rotatable=0;part=1;html=1;" vertex="1" parent="TjmmVvNg8PLHpeqEWvDz-6">
          <mxGeometry y="40" width="200" height="80" as="geometry" />
        </mxCell>
        <mxCell id="TjmmVvNg8PLHpeqEWvDz-8" value="Turma" style="swimlane;childLayout=stackLayout;horizontal=1;startSize=40;horizontalStack=0;rounded=1;fontSize=14;fontStyle=0;strokeWidth=2;resizeParent=0;resizeLast=1;shadow=0;dashed=0;align=center;arcSize=4;whiteSpace=wrap;html=1;" vertex="1" parent="1">
          <mxGeometry x="600" y="40" width="200" height="120" as="geometry" />
        </mxCell>
        <mxCell id="TjmmVvNg8PLHpeqEWvDz-9" value="&lt;div&gt;&lt;font color=&quot;#ff0000&quot;&gt;&lt;b&gt;+ id_turma - integer&lt;/b&gt;&lt;br&gt;&lt;/font&gt;&lt;/div&gt;+ n_alunos - small_int&lt;br&gt;&lt;div&gt;+ tipo_curso - varchar(20)&lt;/div&gt;" style="align=left;strokeColor=none;fillColor=none;spacingLeft=4;fontSize=12;verticalAlign=top;resizable=0;rotatable=0;part=1;html=1;" vertex="1" parent="TjmmVvNg8PLHpeqEWvDz-8">
          <mxGeometry y="40" width="200" height="80" as="geometry" />
        </mxCell>
        <mxCell id="TjmmVvNg8PLHpeqEWvDz-20" style="edgeStyle=orthogonalEdgeStyle;rounded=0;orthogonalLoop=1;jettySize=auto;html=1;exitX=0.5;exitY=1;exitDx=0;exitDy=0;" edge="1" parent="TjmmVvNg8PLHpeqEWvDz-8" source="TjmmVvNg8PLHpeqEWvDz-9" target="TjmmVvNg8PLHpeqEWvDz-9">
          <mxGeometry relative="1" as="geometry" />
        </mxCell>
        <mxCell id="TjmmVvNg8PLHpeqEWvDz-12" value="Disciplina" style="swimlane;childLayout=stackLayout;horizontal=1;startSize=40;horizontalStack=0;rounded=1;fontSize=14;fontStyle=0;strokeWidth=2;resizeParent=0;resizeLast=1;shadow=0;dashed=0;align=center;arcSize=4;whiteSpace=wrap;html=1;" vertex="1" parent="1">
          <mxGeometry x="880" y="200" width="200" height="120" as="geometry" />
        </mxCell>
        <mxCell id="TjmmVvNg8PLHpeqEWvDz-13" value="&lt;div&gt;&lt;font color=&quot;#ff0000&quot;&gt;&lt;b&gt;+ id_disciplina - integer&lt;/b&gt;&lt;br&gt;&lt;/font&gt;&lt;/div&gt;+ nome_disciplina - varchar(15)&lt;br&gt;&lt;div&gt;+ ementa - text&lt;/div&gt;&lt;div&gt;&lt;i&gt;&lt;font color=&quot;#0000ff&quot;&gt;+ id_professor - integer&lt;/font&gt;&lt;/i&gt;&lt;br&gt;&lt;/div&gt;" style="align=left;strokeColor=none;fillColor=none;spacingLeft=4;fontSize=12;verticalAlign=top;resizable=0;rotatable=0;part=1;html=1;" vertex="1" parent="TjmmVvNg8PLHpeqEWvDz-12">
          <mxGeometry y="40" width="200" height="80" as="geometry" />
        </mxCell>
        <mxCell id="TjmmVvNg8PLHpeqEWvDz-15" value="Livro" style="swimlane;childLayout=stackLayout;horizontal=1;startSize=40;horizontalStack=0;rounded=1;fontSize=14;fontStyle=0;strokeWidth=2;resizeParent=0;resizeLast=1;shadow=0;dashed=0;align=center;arcSize=4;whiteSpace=wrap;html=1;" vertex="1" parent="1">
          <mxGeometry x="1160" y="200" width="200" height="120" as="geometry" />
        </mxCell>
        <mxCell id="TjmmVvNg8PLHpeqEWvDz-16" value="&lt;div&gt;&lt;font color=&quot;#ff0000&quot;&gt;&lt;b&gt;+ id_livro - integer&lt;/b&gt;&lt;br&gt;&lt;/font&gt;&lt;/div&gt;+ nome_livro - varchar(15)&lt;br&gt;&lt;div&gt;+ autor - varchar(40)&lt;/div&gt;&lt;div&gt;+ sinópse - varchar(500)&lt;/div&gt;" style="align=left;strokeColor=none;fillColor=none;spacingLeft=4;fontSize=12;verticalAlign=top;resizable=0;rotatable=0;part=1;html=1;" vertex="1" parent="TjmmVvNg8PLHpeqEWvDz-15">
          <mxGeometry y="40" width="200" height="80" as="geometry" />
        </mxCell>
        <mxCell id="TjmmVvNg8PLHpeqEWvDz-17" value="" style="edgeStyle=entityRelationEdgeStyle;fontSize=12;html=1;endArrow=ERmandOne;startArrow=ERmandOne;rounded=0;exitX=1;exitY=0.5;exitDx=0;exitDy=0;entryX=-0.013;entryY=0.328;entryDx=0;entryDy=0;entryPerimeter=0;" edge="1" parent="1" source="TjmmVvNg8PLHpeqEWvDz-3" target="TjmmVvNg8PLHpeqEWvDz-5">
          <mxGeometry width="100" height="100" relative="1" as="geometry">
            <mxPoint x="440" y="180" as="sourcePoint" />
            <mxPoint x="540" y="80" as="targetPoint" />
          </mxGeometry>
        </mxCell>
        <mxCell id="TjmmVvNg8PLHpeqEWvDz-19" value="" style="edgeStyle=entityRelationEdgeStyle;fontSize=12;html=1;endArrow=ERzeroToMany;startArrow=ERmandOne;rounded=0;exitX=1;exitY=0.5;exitDx=0;exitDy=0;entryX=0;entryY=0.5;entryDx=0;entryDy=0;" edge="1" parent="1" source="TjmmVvNg8PLHpeqEWvDz-4" target="TjmmVvNg8PLHpeqEWvDz-9">
          <mxGeometry width="100" height="100" relative="1" as="geometry">
            <mxPoint x="380" y="320" as="sourcePoint" />
            <mxPoint x="610" y="50" as="targetPoint" />
          </mxGeometry>
        </mxCell>
        <mxCell id="TjmmVvNg8PLHpeqEWvDz-22" value="" style="edgeStyle=entityRelationEdgeStyle;fontSize=12;html=1;endArrow=ERzeroToMany;endFill=1;startArrow=ERzeroToMany;rounded=0;entryX=1;entryY=0.75;entryDx=0;entryDy=0;exitX=0;exitY=0.25;exitDx=0;exitDy=0;" edge="1" parent="1" source="TjmmVvNg8PLHpeqEWvDz-7" target="TjmmVvNg8PLHpeqEWvDz-5">
          <mxGeometry width="100" height="100" relative="1" as="geometry">
            <mxPoint x="370" y="360" as="sourcePoint" />
            <mxPoint x="470" y="260" as="targetPoint" />
          </mxGeometry>
        </mxCell>
        <mxCell id="TjmmVvNg8PLHpeqEWvDz-23" value="" style="edgeStyle=entityRelationEdgeStyle;fontSize=12;html=1;endArrow=ERzeroToMany;startArrow=ERmandOne;rounded=0;entryX=1;entryY=0.5;entryDx=0;entryDy=0;exitX=0;exitY=0.5;exitDx=0;exitDy=0;" edge="1" parent="1" source="TjmmVvNg8PLHpeqEWvDz-13" target="TjmmVvNg8PLHpeqEWvDz-7">
          <mxGeometry width="100" height="100" relative="1" as="geometry">
            <mxPoint x="840" y="300" as="sourcePoint" />
            <mxPoint x="880" y="360" as="targetPoint" />
          </mxGeometry>
        </mxCell>
        <mxCell id="TjmmVvNg8PLHpeqEWvDz-24" value="" style="edgeStyle=entityRelationEdgeStyle;fontSize=12;html=1;endArrow=ERzeroToMany;endFill=1;startArrow=ERzeroToMany;rounded=0;exitX=1;exitY=0.5;exitDx=0;exitDy=0;entryX=0;entryY=0.5;entryDx=0;entryDy=0;" edge="1" parent="1" source="TjmmVvNg8PLHpeqEWvDz-13" target="TjmmVvNg8PLHpeqEWvDz-16">
          <mxGeometry width="100" height="100" relative="1" as="geometry">
            <mxPoint x="1080" y="420" as="sourcePoint" />
            <mxPoint x="1180" y="320" as="targetPoint" />
          </mxGeometry>
        </mxCell>
      </root>
    </mxGraphModel>
  </diagram>
</mxfile>
